<svg width="19" height="18" viewBox="0 0 19 18" fill="none" xmlns="http://www.w3.org/2000/svg">
<path fill-rule="evenodd" clip-rule="evenodd" d="M8.53724 1.42144C8.59656 1.23333 8.7143 1.06903 8.87337 0.952404C9.03244 0.835778 9.22454 0.772898 9.42178 0.772898C9.61902 0.772898 9.81112 0.835778 9.97019 0.952404C10.1293 1.06903 10.247 1.23333 10.3063 1.42144L11.9036 6.33363H17.0563C17.2606 6.32591 17.4618 6.38528 17.6292 6.50267C17.7965 6.62006 17.9209 6.78903 17.9832 6.98374C18.0455 7.17845 18.0423 7.38821 17.9742 7.58096C17.9061 7.77372 17.7767 7.93887 17.6059 8.05118L13.4237 11.0827L15.021 16.0034C15.0842 16.1909 15.0858 16.3936 15.0255 16.582C14.9653 16.7704 14.8464 16.9347 14.6863 17.0507C14.5261 17.1668 14.333 17.2286 14.1352 17.2271C13.9374 17.2256 13.7453 17.161 13.5868 17.0426L9.39602 13.9767L5.21378 17.0168C5.05534 17.1352 4.8632 17.1999 4.6654 17.2013C4.46761 17.2028 4.27453 17.141 4.11435 17.0249C3.95418 16.9089 3.8353 16.7447 3.77508 16.5563C3.71486 16.3678 3.71645 16.1651 3.77963 15.9777L5.37695 11.0569L1.19471 8.02542C1.02389 7.91311 0.894529 7.74795 0.826402 7.5552C0.758274 7.36245 0.755124 7.15269 0.817432 6.95798C0.87974 6.76326 1.00408 6.5943 1.17146 6.47691C1.33883 6.35951 1.54004 6.30014 1.74433 6.30787H6.89698L8.53724 1.42144Z" stroke="#90A3BF" stroke-width="1.5" stroke-linecap="round" stroke-linejoin="round"/>
</svg>