<svg width="19" height="18" viewBox="0 0 19 18" fill="none" xmlns="http://www.w3.org/2000/svg">
<path fill-rule="evenodd" clip-rule="evenodd" d="M8.53721 1.42143C8.59653 1.23333 8.71427 1.06903 8.87334 0.952401C9.0324 0.835775 9.22451 0.772895 9.42175 0.772895C9.61899 0.772895 9.81109 0.835775 9.97015 0.952401C10.1292 1.06903 10.247 1.23333 10.3063 1.42143L11.9036 6.33361H17.0562C17.2605 6.32589 17.4617 6.38526 17.6291 6.50265C17.7965 6.62004 17.9208 6.789 17.9831 6.98371C18.0454 7.17843 18.0423 7.38818 17.9742 7.58094C17.906 7.77369 17.7767 7.93884 17.6058 8.05115L13.4236 11.0826L15.0209 16.0034C15.0841 16.1908 15.0857 16.3936 15.0255 16.582C14.9653 16.7704 14.8464 16.9346 14.6862 17.0506C14.526 17.1667 14.333 17.2285 14.1352 17.227C13.9374 17.2256 13.7452 17.1609 13.5868 17.0425L9.39598 13.9767L5.21376 17.0167C5.05533 17.1352 4.86318 17.1998 4.66539 17.2013C4.46759 17.2027 4.27451 17.1409 4.11434 17.0249C3.95416 16.9088 3.83529 16.7446 3.77507 16.5562C3.71485 16.3678 3.71644 16.1651 3.77961 15.9776L5.37693 11.0569L1.19471 8.02539C1.02388 7.91308 0.894526 7.74793 0.826399 7.55517C0.758271 7.36242 0.755121 7.15266 0.817429 6.95795C0.879737 6.76324 1.00408 6.59428 1.17145 6.47689C1.33883 6.35949 1.54003 6.30012 1.74432 6.30785H6.89696L8.53721 1.42143Z" stroke="#90A3BF" stroke-width="1.5" stroke-linecap="round" stroke-linejoin="round"/>
</svg>
